<mxfile host="app.diagrams.net" agent="Mozilla/5.0 (Windows NT 10.0; Win64; x64) AppleWebKit/537.36 (KHTML, like Gecko) Chrome/131.0.0.0 Safari/537.36 Edg/131.0.0.0" version="25.0.1">
  <diagram id="xYz1Swz-w5PXVr1vkCAV" name="第 1 页">
    <mxGraphModel dx="1213" dy="661" grid="1" gridSize="10" guides="1" tooltips="1" connect="1" arrows="1" fold="1" page="1" pageScale="1" pageWidth="827" pageHeight="1169" math="0" shadow="0">
      <root>
        <mxCell id="0" />
        <mxCell id="1" parent="0" />
        <mxCell id="u2cNToumFVs5gGyiV9GG-18" value="" style="edgeStyle=orthogonalEdgeStyle;rounded=0;orthogonalLoop=1;jettySize=auto;html=1;" edge="1" parent="1" source="u2cNToumFVs5gGyiV9GG-1" target="u2cNToumFVs5gGyiV9GG-17">
          <mxGeometry relative="1" as="geometry" />
        </mxCell>
        <mxCell id="u2cNToumFVs5gGyiV9GG-1" value="开始" style="rounded=0;whiteSpace=wrap;html=1;fillColor=#dae8fc;strokeColor=#6c8ebf;" vertex="1" parent="1">
          <mxGeometry x="40" y="30" width="80" height="40" as="geometry" />
        </mxCell>
        <mxCell id="u2cNToumFVs5gGyiV9GG-9" value="" style="edgeStyle=orthogonalEdgeStyle;rounded=0;orthogonalLoop=1;jettySize=auto;html=1;" edge="1" parent="1" source="u2cNToumFVs5gGyiV9GG-3" target="u2cNToumFVs5gGyiV9GG-4">
          <mxGeometry relative="1" as="geometry" />
        </mxCell>
        <mxCell id="u2cNToumFVs5gGyiV9GG-3" value="从数据库获取信息" style="rounded=0;whiteSpace=wrap;html=1;fillColor=#dae8fc;strokeColor=#6c8ebf;" vertex="1" parent="1">
          <mxGeometry x="280" y="30" width="100" height="40" as="geometry" />
        </mxCell>
        <mxCell id="u2cNToumFVs5gGyiV9GG-8" value="" style="edgeStyle=orthogonalEdgeStyle;rounded=0;orthogonalLoop=1;jettySize=auto;html=1;" edge="1" parent="1" source="u2cNToumFVs5gGyiV9GG-4" target="u2cNToumFVs5gGyiV9GG-5">
          <mxGeometry relative="1" as="geometry" />
        </mxCell>
        <mxCell id="u2cNToumFVs5gGyiV9GG-4" value="将信息映射到前端页面" style="rounded=0;whiteSpace=wrap;html=1;fillColor=#dae8fc;strokeColor=#6c8ebf;" vertex="1" parent="1">
          <mxGeometry x="414" y="30" width="126" height="40" as="geometry" />
        </mxCell>
        <mxCell id="u2cNToumFVs5gGyiV9GG-7" value="" style="edgeStyle=orthogonalEdgeStyle;rounded=0;orthogonalLoop=1;jettySize=auto;html=1;" edge="1" parent="1" source="u2cNToumFVs5gGyiV9GG-5">
          <mxGeometry relative="1" as="geometry">
            <mxPoint x="640" y="110" as="targetPoint" />
          </mxGeometry>
        </mxCell>
        <mxCell id="u2cNToumFVs5gGyiV9GG-5" value="展示书籍信息" style="rounded=0;whiteSpace=wrap;html=1;fillColor=#dae8fc;strokeColor=#6c8ebf;" vertex="1" parent="1">
          <mxGeometry x="580" y="30" width="120" height="40" as="geometry" />
        </mxCell>
        <mxCell id="u2cNToumFVs5gGyiV9GG-14" value="" style="edgeStyle=orthogonalEdgeStyle;rounded=0;orthogonalLoop=1;jettySize=auto;html=1;" edge="1" parent="1" source="u2cNToumFVs5gGyiV9GG-11" target="u2cNToumFVs5gGyiV9GG-12">
          <mxGeometry relative="1" as="geometry" />
        </mxCell>
        <mxCell id="u2cNToumFVs5gGyiV9GG-23" value="Y" style="edgeLabel;html=1;align=center;verticalAlign=middle;resizable=0;points=[];" vertex="1" connectable="0" parent="u2cNToumFVs5gGyiV9GG-14">
          <mxGeometry x="-0.2333" y="-3" relative="1" as="geometry">
            <mxPoint y="-7" as="offset" />
          </mxGeometry>
        </mxCell>
        <mxCell id="u2cNToumFVs5gGyiV9GG-26" value="" style="edgeStyle=orthogonalEdgeStyle;rounded=0;orthogonalLoop=1;jettySize=auto;html=1;" edge="1" parent="1" source="u2cNToumFVs5gGyiV9GG-11" target="u2cNToumFVs5gGyiV9GG-25">
          <mxGeometry relative="1" as="geometry" />
        </mxCell>
        <mxCell id="u2cNToumFVs5gGyiV9GG-33" value="N" style="edgeLabel;html=1;align=center;verticalAlign=middle;resizable=0;points=[];" vertex="1" connectable="0" parent="u2cNToumFVs5gGyiV9GG-26">
          <mxGeometry x="0.24" y="-2" relative="1" as="geometry">
            <mxPoint x="12" as="offset" />
          </mxGeometry>
        </mxCell>
        <mxCell id="u2cNToumFVs5gGyiV9GG-11" value="添加书籍信息" style="rhombus;whiteSpace=wrap;html=1;fillColor=#dae8fc;strokeColor=#6c8ebf;" vertex="1" parent="1">
          <mxGeometry x="580" y="110" width="120" height="60" as="geometry" />
        </mxCell>
        <mxCell id="u2cNToumFVs5gGyiV9GG-15" value="" style="edgeStyle=orthogonalEdgeStyle;rounded=0;orthogonalLoop=1;jettySize=auto;html=1;" edge="1" parent="1" source="u2cNToumFVs5gGyiV9GG-12" target="u2cNToumFVs5gGyiV9GG-13">
          <mxGeometry relative="1" as="geometry" />
        </mxCell>
        <mxCell id="u2cNToumFVs5gGyiV9GG-12" value="加载新页面" style="rounded=0;whiteSpace=wrap;html=1;fillColor=#dae8fc;strokeColor=#6c8ebf;" vertex="1" parent="1">
          <mxGeometry x="430" y="120" width="110" height="40" as="geometry" />
        </mxCell>
        <mxCell id="u2cNToumFVs5gGyiV9GG-21" value="" style="edgeStyle=orthogonalEdgeStyle;rounded=0;orthogonalLoop=1;jettySize=auto;html=1;" edge="1" parent="1" source="u2cNToumFVs5gGyiV9GG-13" target="u2cNToumFVs5gGyiV9GG-20">
          <mxGeometry relative="1" as="geometry" />
        </mxCell>
        <mxCell id="u2cNToumFVs5gGyiV9GG-13" value="在新页面填写信息" style="rounded=0;whiteSpace=wrap;html=1;fillColor=#dae8fc;strokeColor=#6c8ebf;" vertex="1" parent="1">
          <mxGeometry x="280" y="120" width="100" height="40" as="geometry" />
        </mxCell>
        <mxCell id="u2cNToumFVs5gGyiV9GG-19" value="" style="edgeStyle=orthogonalEdgeStyle;rounded=0;orthogonalLoop=1;jettySize=auto;html=1;" edge="1" parent="1" source="u2cNToumFVs5gGyiV9GG-17" target="u2cNToumFVs5gGyiV9GG-3">
          <mxGeometry relative="1" as="geometry" />
        </mxCell>
        <mxCell id="u2cNToumFVs5gGyiV9GG-17" value="刷新页面" style="rounded=0;whiteSpace=wrap;html=1;fillColor=#dae8fc;strokeColor=#6c8ebf;" vertex="1" parent="1">
          <mxGeometry x="150" y="30" width="100" height="40" as="geometry" />
        </mxCell>
        <mxCell id="u2cNToumFVs5gGyiV9GG-22" value="" style="edgeStyle=orthogonalEdgeStyle;rounded=0;orthogonalLoop=1;jettySize=auto;html=1;" edge="1" parent="1" source="u2cNToumFVs5gGyiV9GG-20" target="u2cNToumFVs5gGyiV9GG-17">
          <mxGeometry relative="1" as="geometry" />
        </mxCell>
        <mxCell id="u2cNToumFVs5gGyiV9GG-20" value="提交" style="rounded=0;whiteSpace=wrap;html=1;fillColor=#dae8fc;strokeColor=#6c8ebf;" vertex="1" parent="1">
          <mxGeometry x="150" y="120" width="100" height="40" as="geometry" />
        </mxCell>
        <mxCell id="u2cNToumFVs5gGyiV9GG-30" value="" style="edgeStyle=orthogonalEdgeStyle;rounded=0;orthogonalLoop=1;jettySize=auto;html=1;" edge="1" parent="1" source="u2cNToumFVs5gGyiV9GG-25" target="u2cNToumFVs5gGyiV9GG-29">
          <mxGeometry relative="1" as="geometry" />
        </mxCell>
        <mxCell id="u2cNToumFVs5gGyiV9GG-32" value="Y" style="edgeLabel;html=1;align=center;verticalAlign=middle;resizable=0;points=[];" vertex="1" connectable="0" parent="u2cNToumFVs5gGyiV9GG-30">
          <mxGeometry x="0.015" y="1" relative="1" as="geometry">
            <mxPoint y="-11" as="offset" />
          </mxGeometry>
        </mxCell>
        <mxCell id="u2cNToumFVs5gGyiV9GG-35" value="" style="edgeStyle=orthogonalEdgeStyle;rounded=0;orthogonalLoop=1;jettySize=auto;html=1;" edge="1" parent="1" source="u2cNToumFVs5gGyiV9GG-25" target="u2cNToumFVs5gGyiV9GG-34">
          <mxGeometry relative="1" as="geometry" />
        </mxCell>
        <mxCell id="u2cNToumFVs5gGyiV9GG-36" value="N" style="edgeLabel;html=1;align=center;verticalAlign=middle;resizable=0;points=[];" vertex="1" connectable="0" parent="u2cNToumFVs5gGyiV9GG-35">
          <mxGeometry x="-0.15" relative="1" as="geometry">
            <mxPoint x="10" as="offset" />
          </mxGeometry>
        </mxCell>
        <mxCell id="u2cNToumFVs5gGyiV9GG-25" value="删除书籍信息" style="rhombus;whiteSpace=wrap;html=1;fillColor=#dae8fc;strokeColor=#6c8ebf;" vertex="1" parent="1">
          <mxGeometry x="580" y="200" width="120" height="60" as="geometry" />
        </mxCell>
        <mxCell id="u2cNToumFVs5gGyiV9GG-31" style="edgeStyle=orthogonalEdgeStyle;rounded=0;orthogonalLoop=1;jettySize=auto;html=1;exitX=0;exitY=0.5;exitDx=0;exitDy=0;entryX=0.5;entryY=1;entryDx=0;entryDy=0;" edge="1" parent="1" source="u2cNToumFVs5gGyiV9GG-29" target="u2cNToumFVs5gGyiV9GG-20">
          <mxGeometry relative="1" as="geometry" />
        </mxCell>
        <mxCell id="u2cNToumFVs5gGyiV9GG-29" value="点击按钮删除" style="rounded=0;whiteSpace=wrap;html=1;fillColor=#dae8fc;strokeColor=#6c8ebf;" vertex="1" parent="1">
          <mxGeometry x="359" y="210" width="110" height="40" as="geometry" />
        </mxCell>
        <mxCell id="u2cNToumFVs5gGyiV9GG-34" value="结束" style="rounded=0;whiteSpace=wrap;html=1;fillColor=#dae8fc;strokeColor=#6c8ebf;" vertex="1" parent="1">
          <mxGeometry x="580" y="300" width="120" height="60" as="geometry" />
        </mxCell>
      </root>
    </mxGraphModel>
  </diagram>
</mxfile>
